<svg data-v-fde0c5aa="" xmlns="http://www.w3.org/2000/svg" viewBox="10 10 40 20" class="iconLeft"><!----><defs data-v-fde0c5aa=""><!----></defs><rect data-v-fde0c5aa="" fill="none" x="0" y="0" class="logo-background-square"></rect><defs data-v-fde0c5aa=""><!----></defs><g data-v-fde0c5aa="" id="495f79c0-981b-4f46-8c7a-bd76a5fe33ca" fill="#000"><path d=""></path></g><defs data-v-fde0c5aa=""><!----></defs><g data-v-fde0c5aa="" id="62421782-3efe-4d08-847a-1891f567ad98" stroke="none" fill="#36eb45"><path d="M58 49.8l-1.1 1.1 2.4 2.3-2.4 2.4 1.1 1.1 3.5-3.5zM48.3 49.8l-3.4 3.4 3.4 3.5 1.1-1.1-2.4-2.4 2.4-2.3zM50.99 59.334l-1.345-.665 5.678-11.471 1.344.665z"></path><path d="M53.2 41.2c-.9 0-1.7.1-2.6.3-1.9-1.9-4.2-3.2-6.8-4 .5-2.3.3-4.1-.9-5.4-1.5-1.7-4-2-5.7-1.9 1.9-2.1 3.3-4.8 3.4-7.9.9-.8 3.4-3 3.3-5.4-.1-2.4-1.7-2.5-2.1-2.5h-.1l.4-3.6c.2-4.3-1.7-5.9-3.1-6.5 1.4-2 1-3.3 1-3.4l-.3-.9-.8.6c-.9.6-1.8.9-2.7.9-.6 0-1-.2-1-.2C32.5.1 26.8-.2 26.5-.2c-5.9 0-7.7 3-8.1 4.2-5 .6-4.8 5.6-4.7 8v1.1c0 .5 0 1 .1 1.5-.7 0-2 .4-2 2.5-.1 2.4 2.4 4.7 3.3 5.4.1 2.9 1.4 5.5 3.2 7.6-1.7 0-4.4.2-5.9 1.9-1.1 1.3-1.4 3.1-.8 5.5-7 2.3-11.8 9-11.8 16.4v3.2h42c1.6 4.7 6.1 8.1 11.3 8.1 6.6 0 12-5.4 12-12 .1-6.6-5.3-12-11.9-12zm-11.4-8.1c.9 1 1 2.6.3 4.8-.1.2-2.1 4.5-8.1 6.1-.4-1.1-1.2-2-2.3-2.5.9-.5 1.6-1.1 2.2-1.8 2.3-2.7 2.4-6.4 2.4-7.9 1.4-.2 4.2-.2 5.5 1.3zm-8.2 15.3c.7 0 1.2.6 1.2 1.2 0 .7-.6 1.2-1.2 1.2-.7 0-1.3-.6-1.3-1.2.1-.6.6-1.2 1.3-1.2zM27.4 41c-2.1-.2-3.8-1-4.9-2.3-1.7-2-2-4.9-2.1-6.4 2.3 1.8 4.9 2.9 7.4 2.9 2.1 0 4.8-1 7.1-2.8 0 1.6-.4 4.4-2.1 6.4-1.1 1.2-2.8 2-4.9 2.2h-.5zM19 5.4h.6l.1-.6s.7-3.6 6.8-3.6c.1 0 5.6.3 8.1 1.4.1 0 .7.3 1.6.3.7 0 1.4-.1 2-.4-.2.4-.6.9-1.1 1.5L36 5.2l1.6.1c.1 0 3.3.3 3 5.3l-.4 3.6-1.7.7c-.4-.5-1-.7-1.3-.8-.8-.1-1.6-.1-2.6-.1-1.7 0-3.3.2-3.4.2-1.3.2-2.2.6-2.6 1.4 0 .1 0 .1-.1.2h-1.3c0-.1 0-.1-.1-.2-.4-.8-1.3-1.3-2.6-1.4-.1 0-1.7-.2-3.4-.2-1 0-1.9.1-2.5.2-.3.1-.9.3-1.3.8l-2-.8c0-.4-.1-.7-.1-1V12c-.2-3.4 0-6.4 3.8-6.6zm18.5 11.9l-.1.7c-.3 1.8-.4 2.1-1.3 2.3 0 0-1 .2-2.2.2-1.3 0-2.2-.3-2.7-.7-.2-.3-.8-1.4-1.3-2.7 0 0-.2-.5 0-.8.2-.3.7-.5 1.4-.6 0 0 1.6-.2 3.3-.2.9 0 1.7.1 2.2.2.1-.1 1 .1.7 1.6zm-11.8-.1c-.5 1.3-1.1 2.4-1.3 2.6-.5.5-1.4.7-2.7.7-1.1 0-2.1-.2-2.1-.2-.9-.3-1-.6-1.3-2.4l-.1-.7c-.2-1.4.5-1.6.7-1.7.5-.1 1.3-.2 2.2-.2 1.6 0 3.2.2 3.2.2.8.1 1.3.3 1.4.6.3.5.1 1 0 1.1zm-9.1 4.6l-.3-.2c-.9-.7-3.1-2.7-3-4.4 0-1.1.4-1.1.7-1.1.4 0 .8-.2 1-.4l1.7.7c-.1.4-.1.8 0 1.3l.1.7c.3 1.8.5 3 2.4 3.6 0 0 1.2.2 2.5.2 1.8 0 3.1-.4 3.9-1.3l.1-.1c0-.1.9-1.4 1.5-2.9l.2-.6h1.1c.1.3.2.5.2.5.6 1.6 1.5 2.9 1.5 3l.1.1c.8.8 2.1 1.3 3.9 1.3 1.3 0 2.4-.2 2.5-.3 1.9-.6 2.1-1.7 2.4-3.5l.1-.7c.1-.5.1-.9 0-1.3l1.6-.6c.2.1.4.2.6.2h.6c.2 0 .6 0 .6 1.1 0 1.7-2.2 3.8-3 4.4l-.3.2v.4c0 3.3-1.8 6.4-4.2 8.5-2.2 1.9-4.9 3.1-7 3.1-5 0-11.1-5.1-11.2-11.4l-.3-.5zm-3 11.3c1.3-1.5 4.1-1.5 5.4-1.4 0 1.6.1 5.3 2.4 7.9.7.9 1.6 1.5 2.7 2-.9.6-1.6 1.5-2 2.5-6.6-1.5-8.8-6.1-8.8-6.2-.7-2.2-.6-3.8.3-4.8zm9 17.1c.7 0 1.3.6 1.3 1.2 0 .7-.6 1.2-1.3 1.2-.7 0-1.3-.6-1.3-1.2.1-.7.6-1.2 1.3-1.2zM1.3 55.7V54c0-6.8 4.4-12.8 10.8-15 .8 1.4 3.5 5.3 9.7 6.7v3.1c-1.2.3-2 1.4-2 2.6 0 1.5 1.2 2.7 2.8 2.7s2.8-1.2 2.8-2.7c0-1.3-.8-2.3-2-2.6v-3.3c0-1.7 1.3-3 3-3H30c1.7 0 3 1.3 3 3V47c-1.2.3-2 1.4-2 2.6 0 1.5 1.2 2.7 2.7 2.7 1.5 0 2.7-1.2 2.7-2.7 0-1.3-.8-2.3-2-2.6v-1.5c5.7-1.5 8.2-5.2 8.9-6.6 2.1.6 4 1.7 5.6 3.1-4.5 1.7-7.8 6.1-7.8 11.2 0 .8.1 1.7.3 2.4H1.3zm51.9 8c-5.8 0-10.5-4.7-10.5-10.5s4.7-10.5 10.5-10.5 10.5 4.7 10.5 10.5S59 63.7 53.2 63.7z"></path></g><!----></svg>