<svg data-v-fde0c5aa="" xmlns="http://www.w3.org/2000/svg" viewBox="0 0 300 300" class="iconLeftSlogan"><!----><defs data-v-fde0c5aa=""><!----></defs><rect data-v-fde0c5aa="" fill="none" x="0" y="0" width="300px" height="300px" class="logo-background-square"></rect><defs data-v-fde0c5aa=""><!----></defs><g data-v-fde0c5aa="" id="c06ee6bf-6f9a-4bcf-91f1-f501a35e1343" fill="none" transform="matrix(1.9193970010866193,0,0,1.9193970010866193,102.14878763780224,121.18991039611493)"><path d="M7.94 10.15L7.94 3.78L6.96 3.78L6.96 10.29C6.96 10.67 6.89 11.00 6.75 11.27C6.34 12.05 5.56 12.45 4.40 12.45C3.65 12.45 3.05 12.28 2.60 11.94C2.08 11.56 1.82 11.01 1.82 10.29L1.82 3.78L0.84 3.78L0.84 10.15C0.84 11.18 1.18 11.99 1.85 12.59C2.48 13.15 3.33 13.43 4.40 13.43C5.45 13.43 6.30 13.15 6.93 12.59C7.60 11.99 7.94 11.18 7.94 10.15ZM10.81 16.80L10.81 12.25C10.86 12.32 10.92 12.39 10.98 12.46C11.56 13.11 12.28 13.44 13.13 13.44C13.98 13.44 14.70 13.11 15.28 12.46C15.85 11.83 16.13 11.08 16.13 10.22C16.13 9.36 15.85 8.61 15.28 7.98C14.70 7.33 13.98 7.00 13.13 7.00C12.28 7.00 11.56 7.33 10.98 7.98C10.92 8.05 10.86 8.12 10.81 8.19L10.81 7.14L9.83 7.14L9.83 16.80ZM15.15 10.22C15.15 10.82 14.94 11.34 14.53 11.79C14.11 12.24 13.59 12.46 12.98 12.46C12.36 12.46 11.85 12.24 11.43 11.79C11.02 11.34 10.81 10.82 10.81 10.22C10.81 9.62 11.02 9.10 11.43 8.65C11.85 8.20 12.36 7.98 12.98 7.98C13.59 7.98 14.11 8.20 14.53 8.65C14.94 9.10 15.15 9.62 15.15 10.22ZM22.79 10.22C22.79 10.82 22.58 11.34 22.17 11.79C21.75 12.24 21.24 12.46 20.62 12.46C20.02 12.46 19.51 12.24 19.08 11.79C18.66 11.35 18.45 10.83 18.45 10.22C18.45 9.61 18.66 9.09 19.08 8.65C19.51 8.20 20.02 7.98 20.62 7.98C21.24 7.98 21.75 8.20 22.17 8.65C22.58 9.10 22.79 9.62 22.79 10.22ZM18.43 14.14L17.43 14.14C17.53 14.79 17.83 15.37 18.33 15.86C18.95 16.49 19.70 16.80 20.58 16.80C21.46 16.80 22.21 16.49 22.83 15.86C23.46 15.24 23.77 14.49 23.77 13.61L23.77 7.14L22.79 7.14L22.79 8.17C22.75 8.11 22.69 8.05 22.63 7.98C22.02 7.33 21.30 7.00 20.48 7.00C19.62 7.00 18.90 7.33 18.32 7.98C17.75 8.61 17.47 9.36 17.47 10.22C17.47 11.08 17.75 11.83 18.32 12.46C18.90 13.11 19.62 13.44 20.48 13.44C21.33 13.44 22.05 13.11 22.63 12.46C22.69 12.39 22.75 12.33 22.79 12.27L22.79 13.61C22.79 14.21 22.58 14.74 22.14 15.17C21.71 15.60 21.19 15.82 20.58 15.82C19.97 15.82 19.45 15.60 19.02 15.17C18.72 14.87 18.52 14.52 18.43 14.14ZM29.04 8.41L29.04 7.14C28.84 7.06 28.63 7.01 28.42 7.01C27.73 7.01 27.22 7.40 26.89 8.16L26.85 8.41L26.85 7.14L25.87 7.14L25.87 13.30L26.85 13.30L26.85 10.22C26.85 9.71 26.97 9.26 27.20 8.86C27.32 8.64 27.48 8.47 27.66 8.32C27.84 8.18 28.06 8.11 28.31 8.11C28.57 8.11 28.81 8.21 29.04 8.41ZM35.13 10.22C35.13 10.82 34.92 11.34 34.50 11.79C34.09 12.24 33.57 12.46 32.96 12.46C32.34 12.46 31.83 12.24 31.41 11.79C30.99 11.34 30.79 10.82 30.79 10.22C30.79 9.62 30.99 9.10 31.41 8.65C31.83 8.20 32.34 7.98 32.96 7.98C33.57 7.98 34.09 8.20 34.50 8.65C34.92 9.10 35.13 9.62 35.13 10.22ZM36.11 13.30L36.11 7.14L35.13 7.14L35.13 8.19C35.07 8.12 35.01 8.05 34.95 7.98C34.37 7.33 33.65 7.00 32.80 7.00C31.95 7.00 31.23 7.33 30.65 7.98C30.09 8.61 29.81 9.36 29.81 10.22C29.81 11.08 30.09 11.83 30.65 12.46C31.23 13.11 31.95 13.44 32.80 13.44C33.65 13.44 34.37 13.11 34.95 12.46C35.01 12.39 35.07 12.32 35.13 12.25L35.13 13.30ZM43.11 10.22C43.11 10.82 42.90 11.34 42.48 11.79C42.07 12.24 41.55 12.46 40.94 12.46C40.32 12.46 39.81 12.24 39.39 11.79C38.97 11.34 38.77 10.82 38.77 10.22C38.77 9.62 38.97 9.10 39.39 8.65C39.81 8.20 40.32 7.98 40.94 7.98C41.55 7.98 42.07 8.20 42.48 8.65C42.90 9.10 43.11 9.62 43.11 10.22ZM44.09 13.30L44.09 2.80L43.11 2.80L43.11 8.19C43.05 8.12 42.99 8.05 42.93 7.98C42.35 7.33 41.63 7.00 40.78 7.00C39.93 7.00 39.21 7.33 38.63 7.98C38.07 8.61 37.79 9.36 37.79 10.22C37.79 11.08 38.07 11.83 38.63 12.46C39.21 13.11 39.93 13.44 40.78 13.44C41.63 13.44 42.35 13.11 42.93 12.46C42.99 12.39 43.05 12.32 43.11 12.25L43.11 13.30ZM52.21 10.08C52.21 9.23 51.88 8.50 51.23 7.88C50.60 7.28 49.85 6.97 48.99 6.97C48.10 6.97 47.34 7.29 46.71 7.92C46.08 8.55 45.77 9.31 45.77 10.19C45.77 11.08 46.08 11.84 46.71 12.46C47.01 12.75 47.35 12.98 47.73 13.15C48.12 13.31 48.59 13.40 49.13 13.40C49.68 13.40 50.22 13.23 50.74 12.89C51.27 12.55 51.66 12.08 51.93 11.49L50.81 11.49C50.59 11.78 50.32 12.01 50.00 12.17C49.68 12.34 49.34 12.42 48.99 12.42C48.46 12.42 47.98 12.25 47.56 11.90C47.14 11.56 46.88 11.13 46.79 10.60L52.21 10.60ZM51.17 9.76L46.80 9.76C46.86 9.50 46.96 9.26 47.10 9.04C47.56 8.31 48.19 7.95 48.99 7.95C49.51 7.95 49.97 8.12 50.38 8.46C50.79 8.80 51.06 9.23 51.17 9.76ZM56.98 8.41L56.98 7.14C56.78 7.06 56.58 7.01 56.36 7.01C55.67 7.01 55.17 7.40 54.84 8.16L54.80 8.41L54.80 7.14L53.82 7.14L53.82 13.30L54.80 13.30L54.80 10.22C54.80 9.71 54.91 9.26 55.15 8.86C55.27 8.64 55.42 8.47 55.60 8.32C55.78 8.18 56.00 8.11 56.26 8.11C56.51 8.11 56.75 8.21 56.98 8.41ZM68.17 10.65C68.17 9.97 68.00 9.40 67.68 8.95C67.35 8.50 66.91 8.20 66.35 8.05C66.68 7.90 66.95 7.65 67.17 7.28C67.26 7.11 67.34 6.94 67.39 6.76C67.44 6.57 67.47 6.32 67.47 6.01C67.47 5.69 67.39 5.38 67.24 5.07C66.83 4.21 65.92 3.78 64.53 3.78L61.95 3.78L61.95 13.30L64.86 13.30C65.83 13.30 66.61 13.08 67.19 12.64C67.48 12.41 67.72 12.11 67.90 11.76C68.08 11.41 68.17 11.03 68.17 10.65ZM66.49 6.16C66.49 6.67 66.33 7.06 66.02 7.31C65.72 7.56 65.31 7.69 64.81 7.69L62.93 7.69L62.93 4.72L64.53 4.72C65.83 4.72 66.49 5.20 66.49 6.16ZM67.19 10.46C67.19 11.02 66.99 11.49 66.61 11.84C66.23 12.19 65.74 12.36 65.14 12.36L62.93 12.36L62.93 8.67L65.30 8.67C65.80 8.67 66.23 8.83 66.61 9.16C66.78 9.32 66.92 9.50 67.03 9.72C67.13 9.93 67.19 10.18 67.19 10.46ZM74.54 10.19C74.54 10.80 74.32 11.32 73.88 11.76C73.44 12.20 72.91 12.42 72.30 12.42C71.68 12.42 71.15 12.20 70.71 11.76C70.28 11.32 70.06 10.80 70.06 10.19C70.06 9.58 70.28 9.05 70.71 8.61C71.15 8.17 71.68 7.95 72.30 7.95C72.91 7.95 73.44 8.17 73.88 8.61C74.32 9.05 74.54 9.58 74.54 10.19ZM75.52 10.19C75.52 9.31 75.20 8.55 74.57 7.92C73.94 7.29 73.18 6.97 72.30 6.97C71.41 6.97 70.65 7.29 70.02 7.92C69.39 8.55 69.08 9.31 69.08 10.19C69.08 11.08 69.39 11.84 70.02 12.46C70.66 13.09 71.41 13.40 72.30 13.40C73.18 13.40 73.94 13.09 74.57 12.46C75.20 11.84 75.52 11.08 75.52 10.19ZM77.98 16.80L82.24 7.14L81.14 7.14L79.38 11.27L77.41 7.14L76.29 7.14L78.86 12.29L76.79 16.80Z"></path></g><defs data-v-fde0c5aa=""><!----></defs><g data-v-fde0c5aa="" id="3e13a3ee-67db-426e-9623-019f719606a7" stroke="none" fill="#0BFC05" transform="matrix(0.7773356390978968,0,0,0.7773356390978968,40.155466238229536,124.73659113857497)"><path d="M58 49.8l-1.1 1.1 2.4 2.3-2.4 2.4 1.1 1.1 3.5-3.5zM48.3 49.8l-3.4 3.4 3.4 3.5 1.1-1.1-2.4-2.4 2.4-2.3zM50.99 59.334l-1.345-.665 5.678-11.471 1.344.665z"></path><path d="M53.2 41.2c-.9 0-1.7.1-2.6.3-1.9-1.9-4.2-3.2-6.8-4 .5-2.3.3-4.1-.9-5.4-1.5-1.7-4-2-5.7-1.9 1.9-2.1 3.3-4.8 3.4-7.9.9-.8 3.4-3 3.3-5.4-.1-2.4-1.7-2.5-2.1-2.5h-.1l.4-3.6c.2-4.3-1.7-5.9-3.1-6.5 1.4-2 1-3.3 1-3.4l-.3-.9-.8.6c-.9.6-1.8.9-2.7.9-.6 0-1-.2-1-.2C32.5.1 26.8-.2 26.5-.2c-5.9 0-7.7 3-8.1 4.2-5 .6-4.8 5.6-4.7 8v1.1c0 .5 0 1 .1 1.5-.7 0-2 .4-2 2.5-.1 2.4 2.4 4.7 3.3 5.4.1 2.9 1.4 5.5 3.2 7.6-1.7 0-4.4.2-5.9 1.9-1.1 1.3-1.4 3.1-.8 5.5-7 2.3-11.8 9-11.8 16.4v3.2h42c1.6 4.7 6.1 8.1 11.3 8.1 6.6 0 12-5.4 12-12 .1-6.6-5.3-12-11.9-12zm-11.4-8.1c.9 1 1 2.6.3 4.8-.1.2-2.1 4.5-8.1 6.1-.4-1.1-1.2-2-2.3-2.5.9-.5 1.6-1.1 2.2-1.8 2.3-2.7 2.4-6.4 2.4-7.9 1.4-.2 4.2-.2 5.5 1.3zm-8.2 15.3c.7 0 1.2.6 1.2 1.2 0 .7-.6 1.2-1.2 1.2-.7 0-1.3-.6-1.3-1.2.1-.6.6-1.2 1.3-1.2zM27.4 41c-2.1-.2-3.8-1-4.9-2.3-1.7-2-2-4.9-2.1-6.4 2.3 1.8 4.9 2.9 7.4 2.9 2.1 0 4.8-1 7.1-2.8 0 1.6-.4 4.4-2.1 6.4-1.1 1.2-2.8 2-4.9 2.2h-.5zM19 5.4h.6l.1-.6s.7-3.6 6.8-3.6c.1 0 5.6.3 8.1 1.4.1 0 .7.3 1.6.3.7 0 1.4-.1 2-.4-.2.4-.6.9-1.1 1.5L36 5.2l1.6.1c.1 0 3.3.3 3 5.3l-.4 3.6-1.7.7c-.4-.5-1-.7-1.3-.8-.8-.1-1.6-.1-2.6-.1-1.7 0-3.3.2-3.4.2-1.3.2-2.2.6-2.6 1.4 0 .1 0 .1-.1.2h-1.3c0-.1 0-.1-.1-.2-.4-.8-1.3-1.3-2.6-1.4-.1 0-1.7-.2-3.4-.2-1 0-1.9.1-2.5.2-.3.1-.9.3-1.3.8l-2-.8c0-.4-.1-.7-.1-1V12c-.2-3.4 0-6.4 3.8-6.6zm18.5 11.9l-.1.7c-.3 1.8-.4 2.1-1.3 2.3 0 0-1 .2-2.2.2-1.3 0-2.2-.3-2.7-.7-.2-.3-.8-1.4-1.3-2.7 0 0-.2-.5 0-.8.2-.3.7-.5 1.4-.6 0 0 1.6-.2 3.3-.2.9 0 1.7.1 2.2.2.1-.1 1 .1.7 1.6zm-11.8-.1c-.5 1.3-1.1 2.4-1.3 2.6-.5.5-1.4.7-2.7.7-1.1 0-2.1-.2-2.1-.2-.9-.3-1-.6-1.3-2.4l-.1-.7c-.2-1.4.5-1.6.7-1.7.5-.1 1.3-.2 2.2-.2 1.6 0 3.2.2 3.2.2.8.1 1.3.3 1.4.6.3.5.1 1 0 1.1zm-9.1 4.6l-.3-.2c-.9-.7-3.1-2.7-3-4.4 0-1.1.4-1.1.7-1.1.4 0 .8-.2 1-.4l1.7.7c-.1.4-.1.8 0 1.3l.1.7c.3 1.8.5 3 2.4 3.6 0 0 1.2.2 2.5.2 1.8 0 3.1-.4 3.9-1.3l.1-.1c0-.1.9-1.4 1.5-2.9l.2-.6h1.1c.1.3.2.5.2.5.6 1.6 1.5 2.9 1.5 3l.1.1c.8.8 2.1 1.3 3.9 1.3 1.3 0 2.4-.2 2.5-.3 1.9-.6 2.1-1.7 2.4-3.5l.1-.7c.1-.5.1-.9 0-1.3l1.6-.6c.2.1.4.2.6.2h.6c.2 0 .6 0 .6 1.1 0 1.7-2.2 3.8-3 4.4l-.3.2v.4c0 3.3-1.8 6.4-4.2 8.5-2.2 1.9-4.9 3.1-7 3.1-5 0-11.1-5.1-11.2-11.4l-.3-.5zm-3 11.3c1.3-1.5 4.1-1.5 5.4-1.4 0 1.6.1 5.3 2.4 7.9.7.9 1.6 1.5 2.7 2-.9.6-1.6 1.5-2 2.5-6.6-1.5-8.8-6.1-8.8-6.2-.7-2.2-.6-3.8.3-4.8zm9 17.1c.7 0 1.3.6 1.3 1.2 0 .7-.6 1.2-1.3 1.2-.7 0-1.3-.6-1.3-1.2.1-.7.6-1.2 1.3-1.2zM1.3 55.7V54c0-6.8 4.4-12.8 10.8-15 .8 1.4 3.5 5.3 9.7 6.7v3.1c-1.2.3-2 1.4-2 2.6 0 1.5 1.2 2.7 2.8 2.7s2.8-1.2 2.8-2.7c0-1.3-.8-2.3-2-2.6v-3.3c0-1.7 1.3-3 3-3H30c1.7 0 3 1.3 3 3V47c-1.2.3-2 1.4-2 2.6 0 1.5 1.2 2.7 2.7 2.7 1.5 0 2.7-1.2 2.7-2.7 0-1.3-.8-2.3-2-2.6v-1.5c5.7-1.5 8.2-5.2 8.9-6.6 2.1.6 4 1.7 5.6 3.1-4.5 1.7-7.8 6.1-7.8 11.2 0 .8.1 1.7.3 2.4H1.3zm51.9 8c-5.8 0-10.5-4.7-10.5-10.5s4.7-10.5 10.5-10.5 10.5 4.7 10.5 10.5S59 63.7 53.2 63.7z"></path></g><defs data-v-fde0c5aa=""><!----></defs><g data-v-fde0c5aa="" id="a8d1aae6-0b5b-4317-a986-bcd9ffcfa696" fill="#ffffff" transform="matrix(0.46786523829121723,0,0,0.46786523829121723,103.36807436700049,160.7783036191868)"><path d="M0.84 6.97L0.84 5.88L7.73 5.88L7.73 6.97L4.87 6.97L4.87 15.68L3.70 15.68L3.70 6.97L0.84 6.97ZM16.88 15.68L16.88 5.88L22.82 5.88L22.82 6.97L18.06 6.97L18.06 10.22L22.74 10.22L22.74 11.31L18.06 11.31L18.06 14.59L22.90 14.59L22.90 15.68L16.88 15.68ZM35.48 14.78L35.48 14.78Q36.08 14.78 36.50 14.58Q36.93 14.38 37.20 14.04Q37.48 13.69 37.61 13.25Q37.74 12.81 37.74 12.32L37.74 12.32L37.74 12.15L38.92 12.15L38.92 12.32Q38.92 13.06 38.70 13.71Q38.47 14.36 38.04 14.85Q37.60 15.33 36.96 15.60Q36.32 15.88 35.48 15.88L35.48 15.88Q33.85 15.88 32.94 14.85Q32.03 13.83 32.03 11.87L32.03 11.87L32.03 9.69Q32.03 7.78 32.94 6.73Q33.85 5.68 35.48 5.68L35.48 5.68Q36.32 5.68 36.96 5.96Q37.60 6.23 38.04 6.71Q38.47 7.20 38.70 7.85Q38.92 8.50 38.92 9.24L38.92 9.24L38.92 9.41L37.74 9.41L37.74 9.24Q37.73 8.76 37.60 8.32Q37.46 7.87 37.19 7.53Q36.92 7.18 36.50 6.98Q36.08 6.78 35.48 6.78L35.48 6.78Q34.34 6.78 33.77 7.60Q33.21 8.43 33.21 9.77L33.21 9.77L33.21 11.79Q33.21 13.23 33.77 14.01Q34.34 14.78 35.48 14.78ZM47.73 15.68L47.73 5.88L48.90 5.88L48.90 10.22L53.07 10.22L53.07 5.88L54.25 5.88L54.25 15.68L53.07 15.68L53.07 11.31L48.90 11.31L48.90 15.68L47.73 15.68ZM78.68 6.97L78.68 5.88L85.57 5.88L85.57 6.97L82.71 6.97L82.71 15.68L81.54 15.68L81.54 6.97L78.68 6.97ZM94.43 15.68L94.43 5.88L95.61 5.88L95.61 10.22L99.78 10.22L99.78 5.88L100.95 5.88L100.95 15.68L99.78 15.68L99.78 11.31L95.61 11.31L95.61 15.68L94.43 15.68ZM116.07 15.68L115.36 13.24L111.16 13.24L110.45 15.68L109.19 15.68L112.15 5.88L114.37 5.88L117.33 15.68L116.07 15.68ZM113.34 6.38L113.18 6.38L111.48 12.15L115.04 12.15L113.34 6.38ZM125.38 6.97L125.38 5.88L132.27 5.88L132.27 6.97L129.42 6.97L129.42 15.68L128.24 15.68L128.24 6.97L125.38 6.97ZM156.32 15.68L156.32 5.88L158.56 5.88L159.88 15.18L160.05 15.18L161.36 5.88L163.60 5.88L163.60 15.68L162.51 15.68L162.51 6.38L162.34 6.38L161.03 15.68L158.90 15.68L157.58 6.38L157.42 6.38L157.42 15.68L156.32 15.68ZM178.35 15.68L177.63 13.24L173.43 13.24L172.72 15.68L171.46 15.68L174.43 5.88L176.64 5.88L179.61 15.68L178.35 15.68ZM175.62 6.38L175.45 6.38L173.75 12.15L177.31 12.15L175.62 6.38ZM189.24 11.31L189.24 15.68L188.06 15.68L188.06 5.88L189.24 5.88L189.24 10.22L189.56 10.22L193.33 5.88L194.78 5.88L194.78 5.96L190.72 10.70L190.72 10.86L194.95 15.60L194.95 15.68L193.47 15.68L189.56 11.31L189.24 11.31ZM203.70 15.68L203.70 5.88L209.64 5.88L209.64 6.97L204.88 6.97L204.88 10.22L209.55 10.22L209.55 11.31L204.88 11.31L204.88 14.59L209.72 14.59L209.72 15.68L203.70 15.68ZM224.55 9.21L224.55 8.71Q224.55 8.23 224.36 7.87Q224.17 7.50 223.85 7.27Q223.52 7.03 223.10 6.90Q222.68 6.78 222.22 6.78L222.22 6.78Q221.82 6.78 221.45 6.88Q221.09 6.99 220.80 7.18Q220.51 7.38 220.35 7.66Q220.18 7.95 220.18 8.33L220.18 8.33L220.18 8.41Q220.18 8.82 220.35 9.11Q220.51 9.39 220.84 9.60Q221.17 9.80 221.66 9.93Q222.15 10.07 222.81 10.16L222.81 10.16Q224.35 10.40 225.08 11.07Q225.81 11.73 225.81 12.85L225.81 12.85L225.81 13.02Q225.81 13.65 225.59 14.17Q225.37 14.70 224.95 15.08Q224.52 15.46 223.89 15.67Q223.26 15.88 222.43 15.88L222.43 15.88Q221.49 15.88 220.77 15.60Q220.05 15.33 219.57 14.85Q219.09 14.36 218.83 13.71Q218.58 13.06 218.58 12.29L218.58 12.29L218.58 11.87L219.76 11.87L219.76 12.21Q219.76 13.50 220.47 14.14Q221.17 14.78 222.43 14.78L222.43 14.78Q223.52 14.78 224.08 14.30Q224.63 13.82 224.63 13.02L224.63 13.02L224.63 12.94Q224.63 12.17 224.06 11.76Q223.50 11.35 222.22 11.17L222.22 11.17Q221.48 11.07 220.89 10.87Q220.29 10.67 219.87 10.34Q219.45 10.01 219.23 9.55Q219.00 9.09 219.00 8.46L219.00 8.46L219.00 8.29Q219.00 7.71 219.24 7.24Q219.48 6.76 219.91 6.41Q220.33 6.06 220.93 5.87Q221.52 5.68 222.24 5.68L222.24 5.68Q223.06 5.68 223.71 5.92Q224.36 6.16 224.81 6.56Q225.26 6.96 225.49 7.50Q225.72 8.04 225.72 8.62L225.72 8.62L225.72 9.21L224.55 9.21ZM249.93 6.97L249.93 5.88L256.82 5.88L256.82 6.97L253.96 6.97L253.96 15.68L252.78 15.68L252.78 6.97L249.93 6.97ZM272.01 12.15L272.01 15.68L270.83 15.68L270.83 12.40Q270.83 12.04 270.66 11.84Q270.49 11.65 270.07 11.65L270.07 11.65L267.02 11.65L267.02 15.68L265.85 15.68L265.85 5.88L269.35 5.88Q270.10 5.88 270.66 6.10Q271.22 6.31 271.59 6.68Q271.96 7.04 272.15 7.53Q272.34 8.01 272.34 8.54L272.34 8.54L272.34 8.96Q272.34 9.51 272.04 10.05Q271.74 10.60 271.11 10.89L271.11 10.89L271.11 11.06Q271.53 11.13 271.77 11.40Q272.01 11.66 272.01 12.15L272.01 12.15ZM267.02 6.97L267.02 10.56L269.21 10.56Q270.20 10.56 270.68 10.13Q271.17 9.70 271.17 8.88L271.17 8.88L271.17 8.62Q271.17 7.88 270.68 7.43Q270.20 6.97 269.21 6.97L269.21 6.97L267.02 6.97ZM281.54 15.68L281.54 5.88L287.48 5.88L287.48 6.97L282.72 6.97L282.72 10.22L287.39 10.22L287.39 11.31L282.72 11.31L282.72 14.59L287.56 14.59L287.56 15.68L281.54 15.68ZM299.17 5.88L301.99 15.18L302.16 15.18L302.16 5.88L303.34 5.88L303.34 15.68L300.99 15.68L298.16 6.38L297.99 6.38L297.99 15.68L296.81 15.68L296.81 5.88L299.17 5.88ZM312.38 6.97L312.38 5.88L315.60 5.88Q317.42 5.88 318.26 6.75Q319.10 7.62 319.10 9.52L319.10 9.52L319.10 12.04Q319.10 13.94 318.26 14.81Q317.42 15.68 315.60 15.68L315.60 15.68L312.38 15.68L312.38 14.57L313.22 14.57L313.22 6.97L312.38 6.97ZM314.40 14.59L315.43 14.59Q316.08 14.59 316.55 14.46Q317.02 14.34 317.32 14.04Q317.63 13.73 317.78 13.23Q317.93 12.73 317.93 11.96L317.93 11.96L317.93 9.60Q317.93 8.83 317.78 8.33Q317.63 7.83 317.32 7.53Q317.02 7.22 316.55 7.10Q316.08 6.97 315.43 6.97L315.43 6.97L314.40 6.97L314.40 14.59ZM333.52 9.21L333.52 8.71Q333.52 8.23 333.33 7.87Q333.14 7.50 332.82 7.27Q332.50 7.03 332.08 6.90Q331.66 6.78 331.20 6.78L331.20 6.78Q330.79 6.78 330.43 6.88Q330.06 6.99 329.78 7.18Q329.49 7.38 329.32 7.66Q329.15 7.95 329.15 8.33L329.15 8.33L329.15 8.41Q329.15 8.82 329.32 9.11Q329.49 9.39 329.82 9.60Q330.15 9.80 330.64 9.93Q331.13 10.07 331.79 10.16L331.79 10.16Q333.33 10.40 334.05 11.07Q334.78 11.73 334.78 12.85L334.78 12.85L334.78 13.02Q334.78 13.65 334.56 14.17Q334.35 14.70 333.92 15.08Q333.49 15.46 332.86 15.67Q332.23 15.88 331.41 15.88L331.41 15.88Q330.47 15.88 329.75 15.60Q329.03 15.33 328.55 14.85Q328.06 14.36 327.81 13.71Q327.56 13.06 327.56 12.29L327.56 12.29L327.56 11.87L328.73 11.87L328.73 12.21Q328.73 13.50 329.44 14.14Q330.15 14.78 331.41 14.78L331.41 14.78Q332.50 14.78 333.05 14.30Q333.61 13.82 333.61 13.02L333.61 13.02L333.61 12.94Q333.61 12.17 333.04 11.76Q332.47 11.35 331.20 11.17L331.20 11.17Q330.46 11.07 329.86 10.87Q329.27 10.67 328.85 10.34Q328.43 10.01 328.20 9.55Q327.98 9.09 327.98 8.46L327.98 8.46L327.98 8.29Q327.98 7.71 328.22 7.24Q328.45 6.76 328.88 6.41Q329.31 6.06 329.90 5.87Q330.50 5.68 331.21 5.68L331.21 5.68Q332.04 5.68 332.69 5.92Q333.34 6.16 333.79 6.56Q334.24 6.96 334.47 7.50Q334.70 8.04 334.70 8.62L334.70 8.62L334.70 9.21L333.52 9.21Z"></path></g></svg>