<svg data-v-fde0c5aa="" xmlns="http://www.w3.org/2000/svg" viewBox="0 0 300 300" class="iconLeftSlogan"><!----><defs data-v-fde0c5aa=""><!----></defs><rect data-v-fde0c5aa="" fill="transparent" x="0" y="0" width="300px" height="300px" class="logo-background-square"></rect><defs data-v-fde0c5aa=""><!----></defs><g data-v-fde0c5aa="" id="54852674-8a8e-4ffc-ad7c-51ba36f2c361" fill="#000000" transform="matrix(1.9214735476014715,0,0,1.9214735476014715,101.97801244918291,121.16956024135855)"><path d="M7.94 10.15L7.94 3.78L6.96 3.78L6.96 10.29C6.96 10.67 6.89 11.00 6.75 11.27C6.34 12.05 5.56 12.45 4.40 12.45C3.65 12.45 3.05 12.28 2.60 11.94C2.08 11.56 1.82 11.01 1.82 10.29L1.82 3.78L0.84 3.78L0.84 10.15C0.84 11.18 1.18 11.99 1.85 12.59C2.48 13.15 3.33 13.43 4.40 13.43C5.45 13.43 6.30 13.15 6.93 12.59C7.60 11.99 7.94 11.18 7.94 10.15ZM10.81 16.80L10.81 12.25C10.86 12.32 10.92 12.39 10.98 12.46C11.56 13.11 12.28 13.44 13.13 13.44C13.98 13.44 14.70 13.11 15.28 12.46C15.85 11.83 16.13 11.08 16.13 10.22C16.13 9.36 15.85 8.61 15.28 7.98C14.70 7.33 13.98 7.00 13.13 7.00C12.28 7.00 11.56 7.33 10.98 7.98C10.92 8.05 10.86 8.12 10.81 8.19L10.81 7.14L9.83 7.14L9.83 16.80ZM15.15 10.22C15.15 10.82 14.94 11.34 14.53 11.79C14.11 12.24 13.59 12.46 12.98 12.46C12.36 12.46 11.85 12.24 11.43 11.79C11.02 11.34 10.81 10.82 10.81 10.22C10.81 9.62 11.02 9.10 11.43 8.65C11.85 8.20 12.36 7.98 12.98 7.98C13.59 7.98 14.11 8.20 14.53 8.65C14.94 9.10 15.15 9.62 15.15 10.22ZM22.79 10.22C22.79 10.82 22.58 11.34 22.17 11.79C21.75 12.24 21.24 12.46 20.62 12.46C20.02 12.46 19.51 12.24 19.08 11.79C18.66 11.35 18.45 10.83 18.45 10.22C18.45 9.61 18.66 9.09 19.08 8.65C19.51 8.20 20.02 7.98 20.62 7.98C21.24 7.98 21.75 8.20 22.17 8.65C22.58 9.10 22.79 9.62 22.79 10.22ZM18.43 14.14L17.43 14.14C17.53 14.79 17.83 15.37 18.33 15.86C18.95 16.49 19.70 16.80 20.58 16.80C21.46 16.80 22.21 16.49 22.83 15.86C23.46 15.24 23.77 14.49 23.77 13.61L23.77 7.14L22.79 7.14L22.79 8.17C22.75 8.11 22.69 8.05 22.63 7.98C22.02 7.33 21.30 7.00 20.48 7.00C19.62 7.00 18.90 7.33 18.32 7.98C17.75 8.61 17.47 9.36 17.47 10.22C17.47 11.08 17.75 11.83 18.32 12.46C18.90 13.11 19.62 13.44 20.48 13.44C21.33 13.44 22.05 13.11 22.63 12.46C22.69 12.39 22.75 12.33 22.79 12.27L22.79 13.61C22.79 14.21 22.58 14.74 22.14 15.17C21.71 15.60 21.19 15.82 20.58 15.82C19.97 15.82 19.45 15.60 19.02 15.17C18.72 14.87 18.52 14.52 18.43 14.14ZM29.04 8.41L29.04 7.14C28.84 7.06 28.63 7.01 28.42 7.01C27.73 7.01 27.22 7.40 26.89 8.16L26.85 8.41L26.85 7.14L25.87 7.14L25.87 13.30L26.85 13.30L26.85 10.22C26.85 9.71 26.97 9.26 27.20 8.86C27.32 8.64 27.48 8.47 27.66 8.32C27.84 8.18 28.06 8.11 28.31 8.11C28.57 8.11 28.81 8.21 29.04 8.41ZM35.13 10.22C35.13 10.82 34.92 11.34 34.50 11.79C34.09 12.24 33.57 12.46 32.96 12.46C32.34 12.46 31.83 12.24 31.41 11.79C30.99 11.34 30.79 10.82 30.79 10.22C30.79 9.62 30.99 9.10 31.41 8.65C31.83 8.20 32.34 7.98 32.96 7.98C33.57 7.98 34.09 8.20 34.50 8.65C34.92 9.10 35.13 9.62 35.13 10.22ZM36.11 13.30L36.11 7.14L35.13 7.14L35.13 8.19C35.07 8.12 35.01 8.05 34.95 7.98C34.37 7.33 33.65 7.00 32.80 7.00C31.95 7.00 31.23 7.33 30.65 7.98C30.09 8.61 29.81 9.36 29.81 10.22C29.81 11.08 30.09 11.83 30.65 12.46C31.23 13.11 31.95 13.44 32.80 13.44C33.65 13.44 34.37 13.11 34.95 12.46C35.01 12.39 35.07 12.32 35.13 12.25L35.13 13.30ZM43.11 10.22C43.11 10.82 42.90 11.34 42.48 11.79C42.07 12.24 41.55 12.46 40.94 12.46C40.32 12.46 39.81 12.24 39.39 11.79C38.97 11.34 38.77 10.82 38.77 10.22C38.77 9.62 38.97 9.10 39.39 8.65C39.81 8.20 40.32 7.98 40.94 7.98C41.55 7.98 42.07 8.20 42.48 8.65C42.90 9.10 43.11 9.62 43.11 10.22ZM44.09 13.30L44.09 2.80L43.11 2.80L43.11 8.19C43.05 8.12 42.99 8.05 42.93 7.98C42.35 7.33 41.63 7.00 40.78 7.00C39.93 7.00 39.21 7.33 38.63 7.98C38.07 8.61 37.79 9.36 37.79 10.22C37.79 11.08 38.07 11.83 38.63 12.46C39.21 13.11 39.93 13.44 40.78 13.44C41.63 13.44 42.35 13.11 42.93 12.46C42.99 12.39 43.05 12.32 43.11 12.25L43.11 13.30ZM52.21 10.08C52.21 9.23 51.88 8.50 51.23 7.88C50.60 7.28 49.85 6.97 48.99 6.97C48.10 6.97 47.34 7.29 46.71 7.92C46.08 8.55 45.77 9.31 45.77 10.19C45.77 11.08 46.08 11.84 46.71 12.46C47.01 12.75 47.35 12.98 47.73 13.15C48.12 13.31 48.59 13.40 49.13 13.40C49.68 13.40 50.22 13.23 50.74 12.89C51.27 12.55 51.66 12.08 51.93 11.49L50.81 11.49C50.59 11.78 50.32 12.01 50.00 12.17C49.68 12.34 49.34 12.42 48.99 12.42C48.46 12.42 47.98 12.25 47.56 11.90C47.14 11.56 46.88 11.13 46.79 10.60L52.21 10.60ZM51.17 9.76L46.80 9.76C46.86 9.50 46.96 9.26 47.10 9.04C47.56 8.31 48.19 7.95 48.99 7.95C49.51 7.95 49.97 8.12 50.38 8.46C50.79 8.80 51.06 9.23 51.17 9.76ZM56.98 8.41L56.98 7.14C56.78 7.06 56.58 7.01 56.36 7.01C55.67 7.01 55.17 7.40 54.84 8.16L54.80 8.41L54.80 7.14L53.82 7.14L53.82 13.30L54.80 13.30L54.80 10.22C54.80 9.71 54.91 9.26 55.15 8.86C55.27 8.64 55.42 8.47 55.60 8.32C55.78 8.18 56.00 8.11 56.26 8.11C56.51 8.11 56.75 8.21 56.98 8.41ZM68.17 10.65C68.17 9.97 68.00 9.40 67.68 8.95C67.35 8.50 66.91 8.20 66.35 8.05C66.68 7.90 66.95 7.65 67.17 7.28C67.26 7.11 67.34 6.94 67.39 6.76C67.44 6.57 67.47 6.32 67.47 6.01C67.47 5.69 67.39 5.38 67.24 5.07C66.83 4.21 65.92 3.78 64.53 3.78L61.95 3.78L61.95 13.30L64.86 13.30C65.83 13.30 66.61 13.08 67.19 12.64C67.48 12.41 67.72 12.11 67.90 11.76C68.08 11.41 68.17 11.03 68.17 10.65ZM66.49 6.16C66.49 6.67 66.33 7.06 66.02 7.31C65.72 7.56 65.31 7.69 64.81 7.69L62.93 7.69L62.93 4.72L64.53 4.72C65.83 4.72 66.49 5.20 66.49 6.16ZM67.19 10.46C67.19 11.02 66.99 11.49 66.61 11.84C66.23 12.19 65.74 12.36 65.14 12.36L62.93 12.36L62.93 8.67L65.30 8.67C65.80 8.67 66.23 8.83 66.61 9.16C66.78 9.32 66.92 9.50 67.03 9.72C67.13 9.93 67.19 10.18 67.19 10.46ZM74.54 10.19C74.54 10.80 74.32 11.32 73.88 11.76C73.44 12.20 72.91 12.42 72.30 12.42C71.68 12.42 71.15 12.20 70.71 11.76C70.28 11.32 70.06 10.80 70.06 10.19C70.06 9.58 70.28 9.05 70.71 8.61C71.15 8.17 71.68 7.95 72.30 7.95C72.91 7.95 73.44 8.17 73.88 8.61C74.32 9.05 74.54 9.58 74.54 10.19ZM75.52 10.19C75.52 9.31 75.20 8.55 74.57 7.92C73.94 7.29 73.18 6.97 72.30 6.97C71.41 6.97 70.65 7.29 70.02 7.92C69.39 8.55 69.08 9.31 69.08 10.19C69.08 11.08 69.39 11.84 70.02 12.46C70.66 13.09 71.41 13.40 72.30 13.40C73.18 13.40 73.94 13.09 74.57 12.46C75.20 11.84 75.52 11.08 75.52 10.19ZM77.98 16.80L82.24 7.14L81.14 7.14L79.38 11.27L77.41 7.14L76.29 7.14L78.86 12.29L76.79 16.80Z"></path></g><defs data-v-fde0c5aa=""><linearGradient data-v-fde0c5aa="" gradientTransform="rotate(25)" id="b34b6bbb-5325-45a9-8b38-7310764a99db" x1="0%" y1="0%" x2="100%" y2="0%"><stop data-v-fde0c5aa="" offset="0%" stop-color="#288B58" stop-opacity="1"></stop><stop data-v-fde0c5aa="" offset="100%" stop-color="#1522F1" stop-opacity="1"></stop></linearGradient></defs><g data-v-fde0c5aa="" id="ee7dffb3-e978-4685-ba5f-82bc6770ee0f" stroke="none" fill="url(#b34b6bbb-5325-45a9-8b38-7310764a99db)" transform="matrix(0.7747471651836753,0,0,0.7747471651836753,40.15494854640897,124.8207165427543)"><path d="M58 49.8l-1.1 1.1 2.4 2.3-2.4 2.4 1.1 1.1 3.5-3.5zM48.3 49.8l-3.4 3.4 3.4 3.5 1.1-1.1-2.4-2.4 2.4-2.3zM50.99 59.334l-1.345-.665 5.678-11.471 1.344.665z"></path><path d="M53.2 41.2c-.9 0-1.7.1-2.6.3-1.9-1.9-4.2-3.2-6.8-4 .5-2.3.3-4.1-.9-5.4-1.5-1.7-4-2-5.7-1.9 1.9-2.1 3.3-4.8 3.4-7.9.9-.8 3.4-3 3.3-5.4-.1-2.4-1.7-2.5-2.1-2.5h-.1l.4-3.6c.2-4.3-1.7-5.9-3.1-6.5 1.4-2 1-3.3 1-3.4l-.3-.9-.8.6c-.9.6-1.8.9-2.7.9-.6 0-1-.2-1-.2C32.5.1 26.8-.2 26.5-.2c-5.9 0-7.7 3-8.1 4.2-5 .6-4.8 5.6-4.7 8v1.1c0 .5 0 1 .1 1.5-.7 0-2 .4-2 2.5-.1 2.4 2.4 4.7 3.3 5.4.1 2.9 1.4 5.5 3.2 7.6-1.7 0-4.4.2-5.9 1.9-1.1 1.3-1.4 3.1-.8 5.5-7 2.3-11.8 9-11.8 16.4v3.2h42c1.6 4.7 6.1 8.1 11.3 8.1 6.6 0 12-5.4 12-12 .1-6.6-5.3-12-11.9-12zm-11.4-8.1c.9 1 1 2.6.3 4.8-.1.2-2.1 4.5-8.1 6.1-.4-1.1-1.2-2-2.3-2.5.9-.5 1.6-1.1 2.2-1.8 2.3-2.7 2.4-6.4 2.4-7.9 1.4-.2 4.2-.2 5.5 1.3zm-8.2 15.3c.7 0 1.2.6 1.2 1.2 0 .7-.6 1.2-1.2 1.2-.7 0-1.3-.6-1.3-1.2.1-.6.6-1.2 1.3-1.2zM27.4 41c-2.1-.2-3.8-1-4.9-2.3-1.7-2-2-4.9-2.1-6.4 2.3 1.8 4.9 2.9 7.4 2.9 2.1 0 4.8-1 7.1-2.8 0 1.6-.4 4.4-2.1 6.4-1.1 1.2-2.8 2-4.9 2.2h-.5zM19 5.4h.6l.1-.6s.7-3.6 6.8-3.6c.1 0 5.6.3 8.1 1.4.1 0 .7.3 1.6.3.7 0 1.4-.1 2-.4-.2.4-.6.9-1.1 1.5L36 5.2l1.6.1c.1 0 3.3.3 3 5.3l-.4 3.6-1.7.7c-.4-.5-1-.7-1.3-.8-.8-.1-1.6-.1-2.6-.1-1.7 0-3.3.2-3.4.2-1.3.2-2.2.6-2.6 1.4 0 .1 0 .1-.1.2h-1.3c0-.1 0-.1-.1-.2-.4-.8-1.3-1.3-2.6-1.4-.1 0-1.7-.2-3.4-.2-1 0-1.9.1-2.5.2-.3.1-.9.3-1.3.8l-2-.8c0-.4-.1-.7-.1-1V12c-.2-3.4 0-6.4 3.8-6.6zm18.5 11.9l-.1.7c-.3 1.8-.4 2.1-1.3 2.3 0 0-1 .2-2.2.2-1.3 0-2.2-.3-2.7-.7-.2-.3-.8-1.4-1.3-2.7 0 0-.2-.5 0-.8.2-.3.7-.5 1.4-.6 0 0 1.6-.2 3.3-.2.9 0 1.7.1 2.2.2.1-.1 1 .1.7 1.6zm-11.8-.1c-.5 1.3-1.1 2.4-1.3 2.6-.5.5-1.4.7-2.7.7-1.1 0-2.1-.2-2.1-.2-.9-.3-1-.6-1.3-2.4l-.1-.7c-.2-1.4.5-1.6.7-1.7.5-.1 1.3-.2 2.2-.2 1.6 0 3.2.2 3.2.2.8.1 1.3.3 1.4.6.3.5.1 1 0 1.1zm-9.1 4.6l-.3-.2c-.9-.7-3.1-2.7-3-4.4 0-1.1.4-1.1.7-1.1.4 0 .8-.2 1-.4l1.7.7c-.1.4-.1.8 0 1.3l.1.7c.3 1.8.5 3 2.4 3.6 0 0 1.2.2 2.5.2 1.8 0 3.1-.4 3.9-1.3l.1-.1c0-.1.9-1.4 1.5-2.9l.2-.6h1.1c.1.3.2.5.2.5.6 1.6 1.5 2.9 1.5 3l.1.1c.8.8 2.1 1.3 3.9 1.3 1.3 0 2.4-.2 2.5-.3 1.9-.6 2.1-1.7 2.4-3.5l.1-.7c.1-.5.1-.9 0-1.3l1.6-.6c.2.1.4.2.6.2h.6c.2 0 .6 0 .6 1.1 0 1.7-2.2 3.8-3 4.4l-.3.2v.4c0 3.3-1.8 6.4-4.2 8.5-2.2 1.9-4.9 3.1-7 3.1-5 0-11.1-5.1-11.2-11.4l-.3-.5zm-3 11.3c1.3-1.5 4.1-1.5 5.4-1.4 0 1.6.1 5.3 2.4 7.9.7.9 1.6 1.5 2.7 2-.9.6-1.6 1.5-2 2.5-6.6-1.5-8.8-6.1-8.8-6.2-.7-2.2-.6-3.8.3-4.8zm9 17.1c.7 0 1.3.6 1.3 1.2 0 .7-.6 1.2-1.3 1.2-.7 0-1.3-.6-1.3-1.2.1-.7.6-1.2 1.3-1.2zM1.3 55.7V54c0-6.8 4.4-12.8 10.8-15 .8 1.4 3.5 5.3 9.7 6.7v3.1c-1.2.3-2 1.4-2 2.6 0 1.5 1.2 2.7 2.8 2.7s2.8-1.2 2.8-2.7c0-1.3-.8-2.3-2-2.6v-3.3c0-1.7 1.3-3 3-3H30c1.7 0 3 1.3 3 3V47c-1.2.3-2 1.4-2 2.6 0 1.5 1.2 2.7 2.7 2.7 1.5 0 2.7-1.2 2.7-2.7 0-1.3-.8-2.3-2-2.6v-1.5c5.7-1.5 8.2-5.2 8.9-6.6 2.1.6 4 1.7 5.6 3.1-4.5 1.7-7.8 6.1-7.8 11.2 0 .8.1 1.7.3 2.4H1.3zm51.9 8c-5.8 0-10.5-4.7-10.5-10.5s4.7-10.5 10.5-10.5 10.5 4.7 10.5 10.5S59 63.7 53.2 63.7z"></path></g><defs data-v-fde0c5aa=""><!----></defs><g data-v-fde0c5aa="" id="173ee5dd-f41c-4fd9-996f-1373c76054f4" fill="#000000" transform="matrix(0.479778986830355,0,0,0.479778986830355,103.49609449450833,162.44277809039187)"><path d="M7.71 2.21L0.20 2.21L0.20 3.22L3.43 3.22L3.43 11.48L4.48 11.48L4.48 3.22L7.71 3.22ZM22.86 3.22L22.86 2.21L16.04 2.21L16.04 11.48L22.86 11.48L22.86 10.47L17.09 10.47L17.09 7.35L22.25 7.35L22.25 6.33L17.09 6.33L17.09 3.22ZM35.36 10.57C33.11 10.57 31.85 8.93 31.85 6.85C31.85 4.76 33.11 3.12 35.36 3.12C36.89 3.12 37.90 3.85 38.37 4.98L39.48 4.98C38.89 3.29 37.38 2.10 35.28 2.10C32.49 2.10 30.80 4.21 30.80 6.85C30.80 9.48 32.49 11.59 35.28 11.59C37.38 11.59 38.89 10.40 39.48 8.71L38.37 8.71C37.90 9.84 36.89 10.57 35.36 10.57ZM54.49 2.21L54.49 6.33L49.10 6.33L49.10 2.21L48.05 2.21L48.05 11.48L49.10 11.48L49.10 7.35L54.49 7.35L54.49 11.48L55.54 11.48L55.54 2.21ZM81.37 2.21L73.85 2.21L73.85 3.22L77.08 3.22L77.08 11.48L78.13 11.48L78.13 3.22L81.37 3.22ZM96.14 2.21L96.14 6.33L90.75 6.33L90.75 2.21L89.70 2.21L89.70 11.48L90.75 11.48L90.75 7.35L96.14 7.35L96.14 11.48L97.19 11.48L97.19 2.21ZM110.61 2.21L109.30 2.21L105.36 11.48L106.53 11.48L107.66 8.79L112.25 8.79L113.39 11.48L114.55 11.48ZM108.07 7.83L109.96 3.30L111.85 7.83ZM128.48 2.21L120.96 2.21L120.96 3.22L124.19 3.22L124.19 11.48L125.24 11.48L125.24 3.22L128.48 3.22ZM154.59 2.21L151.33 6.61L148.01 2.21L146.79 2.21L146.79 11.48L147.84 11.48L147.84 3.81L151.33 8.22L154.76 3.81L154.76 11.48L155.81 11.48L155.81 2.21ZM169.23 2.21L167.92 2.21L163.98 11.48L165.14 11.48L166.28 8.79L170.87 8.79L172.00 11.48L173.17 11.48ZM166.68 7.83L168.57 3.30L170.46 7.83ZM189.03 2.21L187.54 2.21L182.39 7.04L182.39 2.21L181.34 2.21L181.34 11.48L182.39 11.48L182.39 8.44L184.31 6.65L187.94 11.48L189.25 11.48L185.08 5.94ZM204.13 3.22L204.13 2.21L197.32 2.21L197.32 11.48L204.13 11.48L204.13 10.47L198.37 10.47L198.37 7.35L203.52 7.35L203.52 6.33L198.37 6.33L198.37 3.22ZM213.33 4.65C213.33 4.03 213.70 3.08 215.80 3.08C217.49 3.08 218.27 3.82 218.39 4.75L219.46 4.75C219.38 3.36 218.26 2.10 215.80 2.10C213.47 2.10 212.31 3.15 212.31 4.66C212.31 7.84 218.65 6.69 218.65 8.96C218.65 10.05 217.67 10.60 216.10 10.60C214.49 10.60 213.19 10.05 213.12 8.71L212.03 8.71C212.17 10.37 213.29 11.59 216.03 11.59C218.32 11.59 219.70 10.64 219.70 8.92C219.70 5.68 213.33 6.80 213.33 4.65ZM244.89 2.21L237.37 2.21L237.37 3.22L240.60 3.22L240.60 11.48L241.65 11.48L241.65 3.22L244.89 3.22ZM254.27 7.92L257.49 7.92L259.73 11.48L260.97 11.48L258.54 7.74C259.57 7.50 260.78 6.90 260.78 5.11C260.78 3.35 259.56 2.21 257.66 2.21L253.22 2.21L253.22 11.48L254.27 11.48ZM254.27 3.21L257.53 3.21C258.85 3.21 259.73 3.93 259.73 5.11C259.73 6.55 258.47 6.93 257.47 6.93L254.27 6.93ZM276.40 3.22L276.40 2.21L269.58 2.21L269.58 11.48L276.40 11.48L276.40 10.47L270.63 10.47L270.63 7.35L275.79 7.35L275.79 6.33L270.63 6.33L270.63 3.22ZM292.04 2.21L292.04 10.01L286.31 2.21L285.10 2.21L285.10 11.48L286.15 11.48L286.15 3.65L291.87 11.48L293.09 11.48L293.09 2.21ZM306.26 2.21L302.36 2.21L302.36 11.48L306.26 11.48C308.48 11.48 310.52 9.74 310.52 6.85C310.52 3.95 308.48 2.21 306.26 2.21ZM306.22 10.49L303.41 10.49L303.41 3.21L306.22 3.21C308.20 3.21 309.47 4.86 309.47 6.85C309.47 8.83 308.20 10.49 306.22 10.49ZM319.83 4.65C319.83 4.03 320.19 3.08 322.29 3.08C323.99 3.08 324.77 3.82 324.88 4.75L325.96 4.75C325.88 3.36 324.76 2.10 322.29 2.10C319.97 2.10 318.81 3.15 318.81 4.66C318.81 7.84 325.15 6.69 325.15 8.96C325.15 10.05 324.17 10.60 322.60 10.60C320.99 10.60 319.69 10.05 319.62 8.71L318.53 8.71C318.67 10.37 319.79 11.59 322.53 11.59C324.81 11.59 326.20 10.64 326.20 8.92C326.20 5.68 319.83 6.80 319.83 4.65Z"></path></g></svg>